<?xml version="1.0" encoding="UTF-8"?>
<svg version="1.1" xmlns="http://www.w3.org/2000/svg" width="500" height="500">
<path d="M0 0 C5.10863896 -0.0246501 10.21724359 -0.04283607 15.32592773 -0.05493164 C17.06519168 -0.05997204 18.80445136 -0.0668043 20.54370117 -0.07543945 C23.03825937 -0.08751792 25.53276173 -0.09323108 28.02734375 -0.09765625 C28.80963852 -0.10281754 29.59193329 -0.10797882 30.39793396 -0.11329651 C32.26567114 -0.11349226 34.13329204 -0.06199694 36 0 C37.88657671 1.88657671 37.12667188 4.63172503 37.13552856 7.14213562 C37.13249222 8.46686638 37.13249222 8.46686638 37.12939453 9.81835938 C37.13202301 11.20605278 37.13202301 11.20605278 37.13470459 12.6217804 C37.13912467 15.69578905 37.13618457 18.7697407 37.1328125 21.84375 C37.13348549 23.96984875 37.13445548 26.09594742 37.13571167 28.2220459 C37.13718886 32.6843336 37.13503342 37.14660133 37.13037109 41.60888672 C37.1246738 47.34270569 37.12795269 53.07647785 37.13394356 58.8102951 C37.13754861 63.20245723 37.13641084 67.59460817 37.13381577 71.98677063 C37.13314634 74.10158799 37.13397545 76.21640634 37.13629532 78.33122253 C37.13882093 81.28138946 37.13498254 84.23147946 37.12939453 87.18164062 C37.13141876 88.06479446 37.13344299 88.9479483 37.13552856 89.85786438 C37.11426234 95.88573766 37.11426234 95.88573766 36 97 C32.89748799 97.08874135 29.8173188 97.11518455 26.71484375 97.09765625 C25.78402481 97.0962413 24.85320587 97.09482635 23.8941803 97.09336853 C20.90858809 97.08775172 17.92306971 97.0751964 14.9375 97.0625 C12.91862087 97.05748716 10.89974057 97.05292388 8.88085938 97.04882812 C3.92054428 97.03777683 -1.03971532 97.02050095 -6 97 C-6 96.34 -6 95.68 -6 95 C-4.906875 94.649375 -3.81375 94.29875 -2.6875 93.9375 C2.17685753 92.13942498 6.28745712 89.39456322 10.58203125 86.5234375 C13 85 13 85 16 84 C16 83.34 16 82.68 16 82 C16.66 82 17.32 82 18 82 C18.226875 81.34 18.45375 80.68 18.6875 80 C20.05759982 76.86834326 21.74152513 74.25360013 23.68359375 71.453125 C25.61272007 67.85819524 26.7098431 63.87047071 28 60 C21.07 60 14.14 60 7 60 C6.34 61.98 5.68 63.96 5 66 C3.37890625 68.1171875 3.37890625 68.1171875 1.5625 69.875 C0.96566406 70.47054687 0.36882812 71.06609375 -0.24609375 71.6796875 C-2 73 -2 73 -5 73 C-5 73.66 -5 74.32 -5 75 C-15.20673326 78.64836423 -24.90475577 79.71985444 -35 75 C-37.95212921 72.92967562 -40.64059514 70.73506429 -43 68 C-43 67.34 -43 66.68 -43 66 C-43.66 66 -44.32 66 -45 66 C-49.91639477 55.44292015 -50.99208119 44.6405253 -47 33.5625 C-46.35801005 32.03108648 -45.70101687 30.50530855 -45 29 C-44.34 29 -43.68 29 -43 29 C-42.773125 28.4225 -42.54625 27.845 -42.3125 27.25 C-39.59694131 22.59475654 -34.92999569 19.88236199 -30 18 C-21.61033686 16.49920982 -12.41933017 16.09612684 -4.7109375 20.2265625 C-0.08467662 23.46667779 3.08989454 27.18013783 6 32 C6 32.99 6 33.98 6 35 C16.395 34.505 16.395 34.505 27 34 C26.01 31.36 25.02 28.72 24 26 C24 25.01 24 24.02 24 23 C23.34 23 22.68 23 22 23 C18 16.25 18 16.25 18 14 C17.40832031 13.72929687 16.81664062 13.45859375 16.20703125 13.1796875 C14.032039 12.01712527 12.49402048 10.78924083 10.6875 9.125 C7.34499825 6.17318028 3.93384721 4.0873475 0 2 C0 1.34 0 0.68 0 0 Z " fill="#0C0C0C" transform="translate(181,194)"/>
<path d="M0 0 C0.44988281 0.39058594 0.89976562 0.78117188 1.36328125 1.18359375 C1.36328125 1.84359375 1.36328125 2.50359375 1.36328125 3.18359375 C2.35328125 3.51359375 3.34328125 3.84359375 4.36328125 4.18359375 C4.36328125 4.84359375 4.36328125 5.50359375 4.36328125 6.18359375 C5.02328125 6.18359375 5.68328125 6.18359375 6.36328125 6.18359375 C7.17826687 7.78649905 7.99018052 9.39096653 8.80078125 10.99609375 C9.25324219 11.88941406 9.70570313 12.78273437 10.171875 13.703125 C14.44473229 22.59907379 13.46502596 35.13488235 10.36328125 44.30859375 C9.72474193 45.94485075 9.06960921 47.57543634 8.36328125 49.18359375 C7.70328125 49.18359375 7.04328125 49.18359375 6.36328125 49.18359375 C6.27691406 49.71339844 6.19054687 50.24320313 6.1015625 50.7890625 C5.09401883 54.05691576 3.37875048 56.61000503 1.55078125 59.49609375 C-1.28235548 64.00571384 -4.04090582 68.53276225 -6.63671875 73.18359375 C-7.29671875 73.18359375 -7.95671875 73.18359375 -8.63671875 73.18359375 C-8.87261719 73.84875 -9.10851562 74.51390625 -9.3515625 75.19921875 C-10.98440532 78.9909875 -13.05280492 82.41388197 -15.19921875 85.93359375 C-15.61107422 86.61808594 -16.02292969 87.30257812 -16.44726562 88.0078125 C-19.48898614 93.03586114 -19.48898614 93.03586114 -20.63671875 94.18359375 C-22.56339382 94.27107582 -24.49323736 94.29056709 -26.421875 94.28125 C-28.17661133 94.27641602 -28.17661133 94.27641602 -29.96679688 94.27148438 C-31.19849609 94.26310547 -32.43019531 94.25472656 -33.69921875 94.24609375 C-35.55256836 94.23932617 -35.55256836 94.23932617 -37.44335938 94.23242188 C-40.50785992 94.22058983 -43.57226596 94.20410548 -46.63671875 94.18359375 C-44.94865257 86.42502239 -39.37677261 79.51920356 -35.171875 72.88085938 C-34.74519531 72.20345703 -34.31851563 71.52605469 -33.87890625 70.828125 C-33.30438721 69.92090698 -33.30438721 69.92090698 -32.71826172 68.99536133 C-31.58756475 67.10125247 -30.59936224 65.16764517 -29.63671875 63.18359375 C-30.32636719 63.1578125 -31.01601563 63.13203125 -31.7265625 63.10546875 C-44.12572326 62.35709691 -51.61829033 57.69000285 -59.94921875 48.68359375 C-65.51691517 40.43515461 -66.32769996 31.86966962 -65.63671875 22.18359375 C-63.71591329 13.01739712 -59.01863772 5.00015044 -51.63671875 -0.81640625 C-48.69921875 -1.75390625 -48.69921875 -1.75390625 -46.63671875 -1.81640625 C-46.63671875 -2.47640625 -46.63671875 -3.13640625 -46.63671875 -3.81640625 C-31.54242646 -9.40195934 -13.67234735 -8.79523748 0 0 Z M-40.07421875 18.37109375 C-42.79008409 23.25965136 -43.0582779 27.99148619 -42.01171875 33.43359375 C-39.94390092 37.56922942 -37.34239448 40.21550752 -33.32421875 42.49609375 C-27.26873802 44.04517022 -21.99527448 43.51879883 -16.26953125 41.18359375 C-14.35480372 40.19433883 -14.35480372 40.19433883 -13.13671875 37.49609375 C-12.97171875 36.73296875 -12.80671875 35.96984375 -12.63671875 35.18359375 C-11.97671875 35.18359375 -11.31671875 35.18359375 -10.63671875 35.18359375 C-9.59764705 28.15577333 -9.59764705 28.15577333 -10.63671875 21.18359375 C-11.29671875 21.18359375 -11.95671875 21.18359375 -12.63671875 21.18359375 C-12.97703125 20.31734375 -12.97703125 20.31734375 -13.32421875 19.43359375 C-15.46318051 15.76680216 -17.73805302 13.69665833 -21.90625 12.5703125 C-29.54480408 11.40868907 -34.40034685 13.27915743 -40.07421875 18.37109375 Z " fill="#0B0B0B" transform="translate(288.63671875,195.81640625)"/>
<path d="M0 0 C2.61376953 -0.34057617 2.61376953 -0.34057617 5.8828125 -0.29296875 C7.04941406 -0.28330078 8.21601563 -0.27363281 9.41796875 -0.26367188 C10.64128906 -0.23853516 11.86460937 -0.21339844 13.125 -0.1875 C14.97158203 -0.16719727 14.97158203 -0.16719727 16.85546875 -0.14648438 C19.90407843 -0.11103543 22.951825 -0.06162079 26 0 C23.32563905 6.55346813 20.61475766 13.01790235 17.375 19.3125 C15.06194776 23.81824203 12.95288548 28.33082835 11 33 C10.34 33 9.68 33 9 33 C9 34.32 9 35.64 9 37 C8.34 37 7.68 37 7 37 C6.91878906 37.81726563 6.83757812 38.63453125 6.75390625 39.4765625 C5.81258739 43.87588693 4.01094675 47.41292172 1.9375 51.375 C0.638125 53.89125 -0.66125 56.4075 -2 59 C4.93 59.33 11.86 59.66 19 60 C19.12375 58.14375 19.2475 56.2875 19.375 54.375 C19.92109711 47.18076419 20.91902985 40.13440301 22 33 C28.27 33 34.54 33 41 33 C41 41.91 41 50.82 41 60 C44.96 60 48.92 60 53 60 C53 67.26 53 74.52 53 82 C49.04 82 45.08 82 41 82 C41 87.61 41 93.22 41 99 C33.41 99 25.82 99 18 99 C18 93.39 18 87.78 18 82 C16.52088135 82.00523682 15.0417627 82.01047363 13.51782227 82.01586914 C8.0518453 82.03391238 2.58587099 82.04542952 -2.88012695 82.05493164 C-5.24992312 82.05997341 -7.61971615 82.06680665 -9.98950195 82.07543945 C-13.38754039 82.0875119 -16.78553785 82.09322971 -20.18359375 82.09765625 C-21.25024765 82.10281754 -22.31690155 82.10797882 -23.4158783 82.11329651 C-24.39681961 82.11337204 -25.37776093 82.11344757 -26.38842773 82.11352539 C-27.25668686 82.115746 -28.12494598 82.11796661 -29.01951599 82.12025452 C-31 82 -31 82 -32 81 C-33.43417902 68.68380285 -31.19824927 60.28445375 -24.98242188 49.68652344 C-23.74645232 47.56473474 -22.6451675 45.39095709 -21.5625 43.1875 C-21.17835938 42.42050781 -20.79421875 41.65351563 -20.3984375 40.86328125 C-18.45569852 36.88555031 -16.57468154 32.87932375 -14.6875 28.875 C-11.70565224 22.55295742 -8.68160575 16.2555841 -5.5625 10 C-5.2327417 9.33597168 -4.9029834 8.67194336 -4.56323242 7.98779297 C-3.16568772 5.2014679 -1.73210855 2.59816283 0 0 Z " fill="#0E0E0E" transform="translate(340,191)"/>
<path d="M0 0 C1.51815699 0.00015911 3.0363194 0.00585313 4.55444336 0.01586914 C5.35208603 0.01728409 6.1497287 0.01869904 6.97154236 0.02015686 C9.52916146 0.02577223 12.08669429 0.03832727 14.64428711 0.05102539 C16.37410356 0.05603841 18.10392137 0.06060166 19.83374023 0.06469727 C24.08312264 0.07574664 28.33244023 0.09302153 32.58178711 0.11352539 C32.58178711 0.77352539 32.58178711 1.43352539 32.58178711 2.11352539 C30.80328114 3.17280475 28.98136872 4.15943556 27.14428711 5.11352539 C16.07947145 11.44744814 9.82960575 20.15895006 5.58178711 32.11352539 C4.44188785 37.09200106 4.43149747 41.9720219 4.45678711 47.05102539 C4.45291992 47.82381836 4.44905273 48.59661133 4.44506836 49.39282227 C4.46746226 62.63881599 8.88394798 74.37158808 18.13256836 84.07446289 C23.7642329 88.76302571 31.28838268 93.81371074 38.58178711 95.11352539 C38.58178711 95.77352539 38.58178711 96.43352539 38.58178711 97.11352539 C32.61865544 97.13817113 26.65555316 97.15635939 20.69238281 97.16845703 C18.66210413 97.17349817 16.63182909 97.18033096 14.6015625 97.18896484 C11.69001364 97.20104006 8.77851261 97.20675573 5.86694336 97.21118164 C4.49663719 97.21892357 4.49663719 97.21892357 3.09864807 97.2268219 C0.92603284 97.22701707 -1.24648585 97.17564344 -3.41821289 97.11352539 C-5.3047896 95.22694868 -4.54488477 92.48180037 -4.55374146 89.97138977 C-4.55171722 89.08823593 -4.54969299 88.20508209 -4.54760742 87.29516602 C-4.54935974 86.37003708 -4.55111206 85.44490814 -4.55291748 84.491745 C-4.55733756 81.41773634 -4.55439746 78.34378469 -4.55102539 75.26977539 C-4.55169838 73.14367664 -4.55266837 71.01757797 -4.55392456 68.89147949 C-4.55540175 64.42919179 -4.55324631 59.96692406 -4.54858398 55.50463867 C-4.54288669 49.7708197 -4.54616558 44.03704754 -4.55215645 38.30323029 C-4.5557615 33.91106816 -4.55462373 29.51891722 -4.55202866 25.12675476 C-4.55135923 23.0119374 -4.55218834 20.89711905 -4.55450821 18.78230286 C-4.55703383 15.83213593 -4.55319543 12.88204593 -4.54760742 9.93188477 C-4.54963165 9.04873093 -4.55165588 8.16557709 -4.55374146 7.25566101 C-4.52867425 0.15040594 -4.52867425 0.15040594 0 0 Z " fill="#1A1A1A" transform="translate(107.418212890625,193.886474609375)"/>
<path d="M0 0 C11.88 0 23.76 0 36 0 C36 0.33 36 0.66 36 1 C25.44 1 14.88 1 4 1 C4.33 1.99 4.66 2.98 5 4 C2.525 3.01 2.525 3.01 0 2 C0 1.34 0 0.68 0 0 Z " fill="#AAAAAA" transform="translate(181,194)"/>
<path d="M0 0 C8.58 0 17.16 0 26 0 C25.34 1.98 24.68 3.96 24 6 C23.34 4.68 22.68 3.36 22 2 C14.74 1.67 7.48 1.34 0 1 C0 0.67 0 0.34 0 0 Z " fill="#626262" transform="translate(340,191)"/>
<path d="M0 0 C3.63 0 7.26 0 11 0 C11 0.33 11 0.66 11 1 C8.69 1 6.38 1 4 1 C4.33 1.99 4.66 2.98 5 4 C2.525 3.01 2.525 3.01 0 2 C0 1.34 0 0.68 0 0 Z " fill="#888888" transform="translate(181,194)"/>
</svg>
