<?xml version="1.0" standalone="no"?>
<!DOCTYPE svg PUBLIC "-//W3C//DTD SVG 20010904//EN"
 "http://www.w3.org/TR/2001/REC-SVG-20010904/DTD/svg10.dtd">
<svg version="1.0" xmlns="http://www.w3.org/2000/svg"
 width="300.000000pt" height="300.000000pt" viewBox="0 0 300.000000 300.000000"
 preserveAspectRatio="xMidYMid meet">
<metadata>
Created by potrace 1.10, written by Peter Selinger 2001-2011
</metadata>
<g transform="translate(0.000000,300.000000) scale(0.100000,-0.100000)"
fill="#000000" stroke="none">
<path d="M342 2378 c-178 -178 -328 -334 -333 -347 -7 -17 -5 -30 5 -46 32
-49 519 -525 537 -525 10 0 34 14 54 31 l35 31 0 -594 c0 -564 1 -596 18 -611
17 -16 90 -17 850 -17 812 0 832 0 842 19 6 13 10 223 10 611 l0 592 35 -31
c20 -17 44 -31 55 -31 19 0 503 475 536 526 11 15 12 28 5 45 -5 13 -155 169
-333 347 l-324 322 -256 0 c-192 0 -258 -3 -266 -12 -5 -7 -15 -38 -21 -68
-31 -146 -147 -243 -291 -243 -143 0 -260 98 -291 243 -6 30 -16 61 -21 68 -8
9 -74 12 -266 12 l-256 0 -324 -322z m822 247 c42 -138 97 -210 201 -260 128
-61 268 -33 374 74 43 43 69 91 97 186 l9 30 235 3 234 2 325 -325 326 -324
-245 -246 c-134 -135 -252 -247 -261 -250 -9 -3 -33 4 -53 15 l-35 22 -26 -26
-25 -25 0 -565 c0 -310 -3 -571 -6 -580 -6 -14 -86 -16 -808 -16 -610 0 -805
3 -814 12 -9 9 -12 151 -12 579 l0 568 -24 27 -23 28 -38 -22 c-20 -13 -45
-20 -54 -17 -9 2 -126 115 -260 249 l-245 245 45 48 c24 26 170 173 325 326
l280 277 234 -2 235 -3 9 -30z"/>
<path d="M695 2611 c-16 -10 -155 -144 -307 -298 -208 -209 -278 -285 -278
-303 0 -32 406 -440 438 -440 12 0 46 22 77 50 30 28 61 50 69 50 20 0 22 -38
25 -685 2 -565 2 -570 23 -592 l21 -23 738 0 738 0 21 22 c20 21 20 32 20 634
0 337 3 619 6 628 10 27 35 18 90 -34 57 -54 68 -58 102 -34 34 23 385 383
399 407 9 17 8 27 -2 47 -8 14 -140 151 -294 305 l-281 280 -196 3 c-228 4
-226 4 -263 -97 -24 -66 -94 -145 -164 -185 -23 -13 -72 -29 -108 -35 -115
-19 -209 3 -289 67 -65 53 -85 79 -125 156 -20 38 -44 75 -53 82 -12 10 -66
13 -197 14 -159 0 -183 -2 -210 -19z m425 -87 c66 -176 271 -293 451 -255 73
15 160 60 212 109 41 39 101 138 112 185 l7 27 192 0 191 0 284 -284 c156
-156 282 -289 280 -295 -2 -6 -94 -101 -203 -211 l-200 -200 -62 60 c-34 33
-69 60 -77 60 -8 0 -25 -8 -36 -18 l-22 -17 1 -638 0 -637 -77 0 c-43 1 -316
0 -608 -1 -291 -1 -594 -1 -673 0 l-143 1 2 642 c2 610 1 642 -17 655 -33 24
-57 14 -120 -48 l-62 -61 -208 206 -207 206 289 290 289 290 190 0 190 0 25
-66z"/>
<path d="M1998 2563 c-32 -2 -58 -7 -58 -12 0 -4 -16 -25 -35 -47 -19 -21 -35
-42 -35 -46 0 -4 -16 -32 -35 -63 -31 -48 -45 -59 -120 -95 -46 -22 -87 -45
-90 -50 -3 -6 -26 -15 -51 -21 l-44 -11 -1 -67 c-2 -60 -1 -211 0 -285 1 -24
3 -27 16 -16 12 10 15 41 14 164 0 83 2 159 6 168 4 9 19 20 35 23 16 3 39 17
53 31 13 13 43 31 67 39 79 28 111 55 139 116 16 36 44 73 74 99 l48 42 97 3
c165 5 187 -1 262 -77 36 -36 73 -77 84 -91 33 -47 40 -54 97 -95 35 -25 88
-82 137 -146 45 -57 86 -107 91 -111 15 -8 3 -35 -34 -75 -39 -42 -54 -75 -27
-61 26 14 99 94 106 118 5 14 1 26 -9 35 -27 22 -67 66 -145 162 -30 37 -76
83 -101 102 -26 18 -71 62 -101 96 -49 55 -156 167 -161 168 -13 4 -236 6
-279 3z"/>
<path d="M680 2504 c-48 -49 -28 -52 25 -4 17 15 39 32 50 38 19 11 19 11 -5
12 -18 0 -40 -15 -70 -46z"/>
<path d="M1081 2463 c5 -16 25 -45 44 -66 19 -21 35 -42 35 -47 0 -15 63 -57
95 -64 25 -5 21 -1 -22 26 -29 18 -53 38 -53 45 0 7 -18 31 -40 54 -21 22 -42
49 -45 60 -4 10 -10 19 -15 19 -5 0 -5 -12 1 -27z"/>
<path d="M545 2364 c-73 -76 -80 -84 -143 -145 -31 -31 -69 -69 -83 -85 -14
-16 -41 -42 -58 -57 -48 -42 -52 -84 -11 -131 38 -43 54 -40 22 4 -36 49 -29
77 35 143 32 33 93 96 136 141 43 44 97 100 119 122 22 23 39 46 37 51 -2 4
-26 -15 -54 -43z"/>
<path d="M1409 2209 c46 -46 55 -93 41 -209 -6 -57 -5 -83 5 -107 8 -18 15
-33 17 -33 4 0 10 215 8 291 -1 30 -55 87 -88 94 -17 3 -14 -4 17 -36z"/>
<path d="M1350 1826 c-19 -7 -47 -18 -61 -24 -34 -14 -140 -132 -174 -193 -52
-95 -44 -235 19 -333 42 -65 71 -94 114 -112 l32 -14 0 -355 c0 -249 3 -356
11 -361 6 -3 33 -7 59 -8 37 -1 46 2 38 11 -6 7 -14 11 -18 8 -5 -3 -20 0 -34
6 l-26 12 0 316 c0 174 -3 327 -7 340 -6 22 -4 23 28 15 41 -11 308 -10 363 1
32 6 37 5 30 -6 -5 -8 -11 -154 -14 -326 l-5 -312 -29 -30 -29 -30 -118 2
c-66 1 -119 -1 -119 -5 0 -3 59 -7 132 -7 159 0 183 9 192 73 4 23 6 165 5
316 -1 381 -4 349 29 361 88 33 147 167 146 334 0 193 -118 296 -373 325 -112
13 -148 12 -191 -4z m300 -34 c116 -29 194 -92 228 -185 24 -63 29 -146 10
-180 -6 -12 -15 -46 -19 -76 -12 -86 -48 -127 -155 -173 l-89 -39 -135 3
c-118 3 -141 6 -179 27 -24 12 -52 24 -64 26 -11 3 -29 12 -40 22 -25 23 -83
114 -85 133 -11 156 6 262 43 277 8 3 15 10 15 17 0 13 136 147 147 144 5 0
15 2 23 5 39 16 236 15 300 -1z"/>
<path d="M1294 1632 c-59 -37 -82 -127 -44 -175 22 -27 26 -52 10 -62 -17 -11
-11 -60 10 -83 24 -25 88 -45 127 -38 29 6 81 39 100 66 7 10 23 16 40 14 15
-1 33 -2 39 -3 6 -1 14 -14 17 -30 7 -34 31 -45 96 -42 48 1 70 20 71 59 0 12
6 31 12 42 10 16 9 25 -5 49 -12 20 -17 51 -17 99 0 55 -4 75 -21 96 -34 43
-60 34 -132 -45 l-64 -71 -16 38 c-8 22 -29 52 -46 68 -41 39 -129 48 -177 18z
m137 -29 c44 -26 62 -74 57 -154 -4 -83 -27 -118 -85 -137 -35 -11 -46 -11
-77 2 -40 17 -54 40 -39 65 20 32 42 25 45 -16 2 -29 8 -39 24 -41 29 -4 50
25 58 80 l7 48 -28 -16 c-26 -15 -31 -15 -66 -1 -73 31 -83 120 -17 165 39 26
81 28 121 5z m279 -88 l0 -105 25 0 c14 0 25 -4 25 -10 0 -5 -11 -10 -25 -10
-21 0 -25 -5 -25 -30 0 -20 5 -30 15 -30 8 0 15 -4 15 -10 0 -6 -28 -10 -65
-10 -37 0 -65 4 -65 10 0 6 7 10 15 10 10 0 15 10 15 30 l0 30 -65 0 c-36 0
-65 4 -65 9 0 9 64 97 132 183 17 21 40 38 50 38 16 0 18 -10 18 -105z"/>
<path d="M1350 1574 c-16 -40 -12 -90 9 -115 16 -20 21 -21 35 -10 19 16 23
120 4 139 -19 19 -38 14 -48 -14z"/>
<path d="M1588 1478 l-46 -63 45 -3 c25 -2 47 -1 50 1 2 3 3 33 1 67 l-3 62
-47 -64z"/>
<path d="M435 1765 c59 -59 69 -65 106 -65 49 0 79 15 79 39 0 22 26 31 95 31
36 0 46 3 35 10 -8 5 -38 10 -66 10 -46 0 -55 -4 -87 -36 -32 -33 -39 -36 -71
-30 -24 5 -44 17 -59 37 -12 17 -39 40 -60 50 -34 18 -32 14 28 -46z"/>
<path d="M2285 1763 c-74 -16 -98 -45 -83 -101 12 -44 30 -31 22 16 l-6 38 53
17 c47 14 54 15 62 2 4 -8 14 -15 21 -15 7 0 18 -10 25 -22 18 -34 57 -50 84
-35 31 17 77 59 88 80 13 23 7 22 -25 -6 -15 -13 -43 -29 -62 -36 -32 -12 -38
-11 -69 10 -18 13 -31 28 -28 34 4 5 3 7 -2 3 -4 -4 -17 -1 -29 7 -11 8 -23
14 -26 14 -3 -1 -14 -3 -25 -6z"/>
<path d="M792 1530 c-2 -71 1 -78 38 -101 29 -18 161 -25 200 -11 20 7 6 11
-67 17 -56 4 -105 14 -125 25 -30 16 -33 22 -39 76 l-6 59 -1 -65z"/>
<path d="M2206 1525 c-24 -88 -10 -79 -137 -85 -108 -5 -139 -11 -139 -29 0
-4 62 -6 137 -5 157 4 157 4 151 99 -3 46 -4 47 -12 20z"/>
<path d="M791 1356 c-7 -8 -14 -31 -17 -53 l-6 -38 22 33 c15 22 30 32 48 32
113 2 223 9 232 15 28 17 -13 25 -134 25 -103 0 -136 -3 -145 -14z"/>
<path d="M1918 1348 c8 -8 60 -14 142 -18 75 -3 134 -10 140 -16 11 -11 15
-134 9 -274 -1 -30 -1 -75 0 -100 2 -25 2 -131 1 -237 -1 -105 1 -196 5 -202
3 -6 -6 -27 -21 -46 -21 -28 -23 -35 -10 -35 40 0 42 26 42 483 -1 378 -3 439
-16 447 -8 5 -80 10 -159 10 -114 0 -142 -3 -133 -12z"/>
<path d="M1220 1145 c-12 -14 -12 -43 2 -510 3 -102 -4 -146 -31 -184 -23 -32
-15 -39 20 -20 27 14 37 45 39 115 2 65 -11 607 -15 612 -1 1 -8 -4 -15 -13z"/>
<path d="M1768 1025 c-3 -209 3 -579 11 -586 3 -4 92 -9 196 -11 105 -2 177
-2 160 0 -16 1 -37 6 -45 9 -32 13 -36 13 -150 13 -77 0 -128 9 -136 22 -4 6
-7 158 -8 339 -1 248 -4 331 -13 341 -10 10 -13 -16 -15 -127z"/>
<path d="M776 478 c4 -13 11 -26 17 -30 12 -8 82 -16 142 -17 22 0 67 -4 100
-7 66 -7 73 2 9 12 -21 3 -43 9 -48 12 -6 3 -47 9 -93 12 -56 5 -89 12 -101
23 -25 23 -35 21 -26 -5z"/>
</g>
</svg>
